HIERARCHY
ROOT Hips
{
	OFFSET	0.000000	0.000000	0.000000
	CHANNELS 6 Xposition Yposition Zposition Zrotation Xrotation Yrotation
	JOINT LeftHip
	{
		OFFSET	4.740440	-3.195970	-0.322709
		CHANNELS 3 Zrotation Xrotation Yrotation
		JOINT LeftKnee
		{
			OFFSET	-1.605680	-15.592300	1.005510
			CHANNELS 3 Zrotation Xrotation Yrotation
			JOINT LeftAnkle
			{
				OFFSET	-0.632401	-16.421000	-1.413730
				CHANNELS 3 Zrotation Xrotation Yrotation
				End Site
				{
					OFFSET	0.008423	-2.933000	-1.684880
				}
			}
		}
	}
	JOINT RightHip
	{
		OFFSET	-4.740440	-3.195970	-0.322709
		CHANNELS 3 Zrotation Xrotation Yrotation
		JOINT RightKnee
		{
			OFFSET	1.605680	-15.592300	1.005510
			CHANNELS 3 Zrotation Xrotation Yrotation
			JOINT RightAnkle
			{
				OFFSET	0.632401	-16.421000	-1.413730
				CHANNELS 3 Zrotation Xrotation Yrotation
				End Site
				{
					OFFSET	-0.008423	-2.933000	-1.684880
				}
			}
		}
	}
	JOINT Chest
	{
		OFFSET	0.000000	3.468200	0.078401
		CHANNELS 3 Zrotation Xrotation Yrotation
		JOINT LeftCollar
		{
			OFFSET	3.857650	15.070700	-0.011583
			CHANNELS 3 Zrotation Xrotation Yrotation
			JOINT LeftShoulder
			{
				OFFSET	3.979720	-1.940530	-0.165223
				CHANNELS 3 Zrotation Xrotation Yrotation
				JOINT LeftElbow
				{
					OFFSET	0.615844	-10.986600	-0.673886
					CHANNELS 3 Zrotation Xrotation Yrotation
					JOINT LeftWrist
					{
						OFFSET	0.826843	-10.854500	1.034220
						CHANNELS 3 Zrotation Xrotation Yrotation
						End Site
						{
							OFFSET	-1.679080	-8.456540	0.936217
						}
					}
				}
			}
		}
		JOINT RightCollar
		{
			OFFSET	-3.857650	15.070700	-0.011583
			CHANNELS 3 Zrotation Xrotation Yrotation
			JOINT RightShoulder
			{
				OFFSET	-3.979720	-1.940530	-0.165223
				CHANNELS 3 Zrotation Xrotation Yrotation
				JOINT RightElbow
				{
					OFFSET	-0.615845	-10.986600	-0.673886
					CHANNELS 3 Zrotation Xrotation Yrotation
					JOINT RightWrist
					{
						OFFSET	-0.826843	-10.854500	1.034220
						CHANNELS 3 Zrotation Xrotation Yrotation
						End Site
						{
							OFFSET	1.679080	-8.456540	0.936217
						}
					}
				}
			}
		}
		JOINT Neck
		{
			OFFSET	0.000000	15.101400	0.055730
			CHANNELS 3 Zrotation Xrotation Yrotation
			JOINT Head
			{
				OFFSET	0.000000	4.185120	1.488260
				CHANNELS 3 Zrotation Xrotation Yrotation
				End Site
				{
					OFFSET	0.000000	7.773420	-0.106016
				}
			}
		}
	}
}
MOTION
Frames:    7
Frame Time: 0.016667
-4.481944	37.687195	128.765121	168.795944	177.501556	59.232349	7.290031	14.015499	0.392294	-8.533967	10.609923	16.955004	-7.022747	-6.226006	11.494773	-18.805325	-4.000025	-8.271209	-4.614808	4.495424	-1.887676	7.561331	2.004546	8.476466	-6.012979	15.867952	0.746265	5.482518	2.609460	-6.338785	4.446072	1.595401	4.958155	-2.597214	-28.247013	1.682600	20.088816	9.088611	-13.041869	3.470029	3.740191	-9.780017	-4.781192	-3.393332	0.546509	-7.408170	-0.542800	13.390192	-11.363513	-3.648424	21.706034	7.990126	21.068224	-8.817848	10.853115	25.060865	-18.876587	
-4.563994	37.625763	128.271667	168.661804	177.501694	58.152538	7.390721	14.871050	-0.078116	-8.202108	10.424374	17.855284	-7.959977	-6.222091	11.768572	-18.502228	-4.194151	-9.266006	-4.356847	5.302142	-1.129808	7.127443	1.565822	7.852233	-6.188614	15.834160	0.955584	5.583727	2.759978	-6.105589	3.739826	2.512362	4.545301	-2.511413	-27.971117	1.763623	20.616165	7.741120	-13.432847	2.909705	3.420013	-10.148173	-4.295198	-3.261227	0.596001	-7.424611	-1.058832	13.336570	-11.280323	-3.561930	22.051016	7.843191	21.115646	-8.017355	9.916827	25.677921	-16.792435	
-4.585627	37.606743	128.098862	168.605209	177.479782	57.786747	7.430961	15.182370	-0.269085	-8.064734	10.346415	18.171206	-8.291482	-6.174797	11.902084	-18.280769	-4.193624	-9.449584	-4.151352	6.066257	-1.613862	6.115931	1.405561	8.697171	-6.238059	15.850009	1.030043	5.673209	2.806770	-6.164593	3.454116	2.915130	4.572692	-2.488694	-28.000681	1.744916	20.797318	7.221686	-13.440243	2.683345	3.326647	-10.295550	-4.105013	-3.220826	0.586863	-7.369812	-1.256433	13.353409	-11.281545	-3.576238	21.960739	7.873686	21.123808	-7.904379	9.426280	25.926197	-15.879239	
-4.627934	37.555061	127.573219	168.436966	177.343781	56.438763	7.546010	16.173780	-0.645394	-7.622270	10.135839	19.018908	-9.364799	-5.866086	12.463675	-17.070105	-4.335491	-9.424852	-5.024846	6.414498	-0.256810	5.291781	1.995879	8.469007	-6.362735	15.774165	1.420518	5.826976	3.106297	-6.289972	2.719523	4.217295	4.735764	-2.600358	-28.378431	1.407183	21.397953	5.992378	-12.915433	2.069324	3.168288	-10.700418	-3.521879	-2.984288	0.091615	-7.299656	-1.977588	13.760702	-11.240857	-3.708741	21.677549	8.042082	21.139429	-7.602242	7.691402	26.980244	-12.826762	
-4.678741	37.600540	127.380417	168.540710	177.215286	55.745598	7.651134	16.444864	-0.547010	-7.438071	10.084352	19.337267	-9.673411	-4.956607	12.825268	-16.430059	-4.533554	-9.208821	-5.084664	7.059978	1.107581	5.203742	1.903348	7.666605	-6.326765	15.586232	1.784096	6.076847	3.338748	-6.624701	2.294449	4.582130	5.090239	-2.659970	-28.586639	1.255562	21.568373	5.717330	-12.638002	1.931552	3.192651	-10.824589	-3.317342	-2.953047	-0.291980	-7.321476	-2.206756	14.114299	-11.199398	-3.816647	20.956978	8.195574	21.227018	-7.452101	7.111012	27.302795	-11.887146	
-4.793636	37.569996	126.786026	168.848526	177.256897	55.050346	8.022771	16.827951	-1.570503	-6.858875	10.020091	20.389490	-11.018965	-4.395442	13.263975	-15.112308	-5.009645	-9.551914	-5.812595	7.538392	3.310777	6.748418	3.145636	7.313986	-6.097359	14.978055	1.385914	6.138930	3.787705	-6.186424	1.770933	5.889209	4.626381	-2.820561	-29.323109	1.164542	21.786301	5.038243	-12.050404	1.564474	3.392346	-11.078871	-3.078229	-2.901645	0.155071	-7.163326	-2.650995	13.592221	-11.276894	-3.757470	21.223156	8.353461	21.519426	-6.890933	5.459336	28.494862	-8.284738	
-4.873302	37.604118	126.562210	169.195175	177.386810	54.474697	8.110044	16.752071	-1.432642	-6.667053	10.052816	20.688442	-11.489196	-3.482220	13.455588	-14.673562	-5.478466	-9.108232	-5.442699	8.240620	4.734831	6.938429	2.796525	6.295404	-6.057941	14.478857	1.591236	6.232158	3.941926	-6.103531	1.499913	6.270347	4.559815	-2.846135	-29.564789	1.184016	21.744188	4.816721	-12.013377	1.461657	3.449102	-11.153668	-2.911588	-2.818084	-0.216807	-7.192126	-2.877511	13.961987	-11.346725	-3.723671	21.122103	8.278934	21.633200	-6.621026	4.903037	29.070589	-6.534282	
